<svg class="svg-icon" style="width: 1em;height: 1em;vertical-align: middle;fill: currentColor;overflow: hidden;" viewBox="0 0 1024 1024" version="1.1" xmlns="http://www.w3.org/2000/svg"><path d="M415.4 845.6c0 2.2-0.2 4.4-0.4 6.6-0.2 2.2-0.6 4.4-1 6.6-0.4 2.2-1 4.4-1.6 6.4-0.6 2.2-1.4 4.2-2.2 6.2-0.8 2-1.8 4-2.8 6-1 2-2.2 3.8-3.4 5.6s-2.6 3.6-4 5.4a52.438 52.438 0 0 1-9.4 9.4c-1.8 1.4-3.4 2.8-5.4 4-1.8 1.2-3.8 2.4-5.6 3.4-2 1-4 2-6 2.8-2 0.8-4.2 1.6-6.2 2.2s-4.2 1.2-6.4 1.6c-2.2 0.4-4.4 0.8-6.6 1-2.2 0.2-4.4 0.4-6.6 0.4-2.2 0-4.4-0.2-6.6-0.4-2.2-0.2-4.4-0.6-6.6-1-2.2-0.4-4.4-1-6.4-1.6-2.2-0.6-4.2-1.4-6.2-2.2-2-0.8-4-1.8-6-2.8-2-1-3.8-2.2-5.6-3.4-1.8-1.2-3.6-2.6-5.4-4a52.438 52.438 0 0 1-9.4-9.4c-1.4-1.8-2.8-3.4-4-5.4-1.2-1.8-2.4-3.8-3.4-5.6-1-2-2-4-2.8-6-0.8-2-1.6-4.2-2.2-6.2-0.6-2.2-1.2-4.2-1.6-6.4-0.4-2.2-0.8-4.4-1-6.6-0.2-2.2-0.4-4.4-0.4-6.6 0-2.2 0.2-4.4 0.4-6.6 0.2-2.2 0.6-4.4 1-6.6 0.4-2.2 1-4.4 1.6-6.4s1.4-4.2 2.2-6.2c0.8-2 1.8-4 2.8-6 1-2 2.2-3.8 3.4-5.6 1.2-1.8 2.6-3.6 4-5.4a52.438 52.438 0 0 1 9.4-9.4c1.8-1.4 3.4-2.8 5.4-4 1.8-1.2 3.8-2.4 5.6-3.4 2-1 4-2 6-2.8 2-0.8 4.2-1.6 6.2-2.2s4.2-1.2 6.4-1.6c2.2-0.4 4.4-0.8 6.6-1 2.2-0.2 4.4-0.4 6.6-0.4 2.2 0 4.4 0.2 6.6 0.4 2.2 0.2 4.4 0.6 6.6 1 2.2 0.4 4.4 1 6.4 1.6 2.2 0.6 4.2 1.4 6.2 2.2 2 0.8 4 1.8 6 2.8 2 1 3.8 2.2 5.6 3.4 1.8 1.2 3.6 2.6 5.4 4a52.438 52.438 0 0 1 9.4 9.4c1.4 1.8 2.8 3.4 4 5.4 1.2 1.8 2.4 3.8 3.4 5.6 1 2 2 4 2.8 6 0.8 2 1.6 4.2 2.2 6.2 0.6 2.2 1.2 4.2 1.6 6.4 0.4 2.2 0.8 4.4 1 6.6 0.4 2 0.4 4.2 0.4 6.6zM888 845.6c0 2.2-0.2 4.4-0.4 6.6-0.2 2.2-0.6 4.4-1 6.6-0.4 2.2-1 4.4-1.6 6.4-0.6 2.2-1.4 4.2-2.2 6.2-0.8 2-1.8 4-2.8 6-1 2-2.2 3.8-3.4 5.6-1.2 1.8-2.6 3.6-4 5.4a52.438 52.438 0 0 1-9.4 9.4c-1.8 1.4-3.4 2.8-5.4 4-1.8 1.2-3.8 2.4-5.6 3.4-2 1-4 2-6 2.8-2 0.8-4.2 1.6-6.2 2.2-2.2 0.6-4.2 1.2-6.4 1.6-2.2 0.4-4.4 0.8-6.6 1-2.2 0.2-4.4 0.4-6.6 0.4-2.2 0-4.4-0.2-6.6-0.4-2.2-0.2-4.4-0.6-6.6-1-2.2-0.4-4.4-1-6.4-1.6-2.2-0.6-4.2-1.4-6.2-2.2-2-0.8-4-1.8-6-2.8-2-1-3.8-2.2-5.6-3.4-1.8-1.2-3.6-2.6-5.4-4a52.438 52.438 0 0 1-9.4-9.4c-1.4-1.8-2.8-3.4-4-5.4-1.2-1.8-2.4-3.8-3.4-5.6-1-2-2-4-2.8-6-0.8-2-1.6-4.2-2.2-6.2-0.6-2.2-1.2-4.2-1.6-6.4-0.4-2.2-0.8-4.4-1-6.6-0.2-2.2-0.4-4.4-0.4-6.6 0-2.2 0.2-4.4 0.4-6.6 0.2-2.2 0.6-4.4 1-6.6 0.4-2.2 1-4.4 1.6-6.4s1.4-4.2 2.2-6.2c0.8-2 1.8-4 2.8-6 1-2 2.2-3.8 3.4-5.6 1.2-1.8 2.6-3.6 4-5.4a52.438 52.438 0 0 1 9.4-9.4c1.8-1.4 3.4-2.8 5.4-4 1.8-1.2 3.8-2.4 5.6-3.4 2-1 4-2 6-2.8 2-0.8 4.2-1.6 6.2-2.2 2.2-0.6 4.2-1.2 6.4-1.6 2.2-0.4 4.4-0.8 6.6-1 2.2-0.2 4.4-0.4 6.6-0.4 2.2 0 4.4 0.2 6.6 0.4 2.2 0.2 4.4 0.6 6.6 1 2.2 0.4 4.4 1 6.4 1.6 2.2 0.6 4.2 1.4 6.2 2.2 2 0.8 4 1.8 6 2.8 2 1 3.8 2.2 5.6 3.4 1.8 1.2 3.6 2.6 5.4 4a52.438 52.438 0 0 1 9.4 9.4c1.4 1.8 2.8 3.4 4 5.4 1.2 1.8 2.4 3.8 3.4 5.6 1 2 2 4 2.8 6 0.8 2 1.6 4.2 2.2 6.2s1.2 4.2 1.6 6.4c0.4 2.2 0.8 4.4 1 6.6 0.2 2 0.4 4.2 0.4 6.6zM940.2 222.8c-2.4-2.8-5-5.6-8-7.8-3-2.4-6.2-4.2-9.6-5.8-3.4-1.6-7-2.8-10.6-3.6-3.6-0.8-7.4-1.2-11.2-1.2h-642l-13-73.4c-0.4-2-0.8-3.8-1.6-5.6-0.6-1.8-1.6-3.6-2.4-5.4-1-1.8-2.2-3.4-3.4-4.8-1.2-1.6-2.6-2.8-4.2-4.2-1.6-1.2-3.2-2.4-4.8-3.4s-3.4-1.8-5.4-2.4c-1.8-0.6-3.8-1.2-5.6-1.6s-3.8-0.6-5.8-0.6H78c-1.2 0-2.2 0-3.4 0.2-1.2 0.2-2.2 0.2-3.2 0.4s-2.2 0.4-3.2 0.8-2 0.6-3.2 1.2c-1 0.4-2 0.8-3 1.4-1 0.6-2 1-2.8 1.8-1 0.6-1.8 1.2-2.6 2s-1.6 1.4-2.4 2.2-1.6 1.6-2.2 2.4c-0.8 0.8-1.4 1.8-2 2.6-0.6 1-1.2 1.8-1.8 2.8-0.6 1-1 2-1.4 3-0.4 1-0.8 2-1.2 3.2s-0.6 2.2-0.8 3.2c-0.2 1-0.4 2.2-0.4 3.2-0.2 1.2-0.2 2.2-0.2 3.4s0 2.2 0.2 3.4c0.2 1.2 0.2 2.2 0.4 3.2s0.4 2.2 0.8 3.2 0.6 2 1.2 3.2c0.4 1 0.8 2 1.4 3s1 2 1.8 2.8c0.6 1 1.2 1.8 2 2.6s1.4 1.6 2.2 2.4c0.8 0.8 1.6 1.6 2.4 2.2 0.8 0.8 1.8 1.4 2.6 2 1 0.6 1.8 1.2 2.8 1.8 1 0.6 2 1 3 1.4 1 0.4 2 0.8 3.2 1.2s2.2 0.6 3.2 0.8c1 0.2 2.2 0.4 3.2 0.4s2.2 0.2 3.4 0.2h106.6l96.4 545.8c0.4 2 0.8 3.8 1.6 5.6 0.6 1.8 1.6 3.6 2.4 5.4 1 1.8 2.2 3.4 3.4 4.8 1.2 1.6 2.6 2.8 4.2 4.2 1.6 1.2 3.2 2.4 4.8 3.4 1.8 1 3.4 1.8 5.4 2.4 1.8 0.6 3.8 1.2 5.6 1.6 2 0.4 3.8 0.6 5.8 0.6h540c1.2 0 2.2 0 3.4-0.2 1.2-0.2 2.2-0.2 3.2-0.4s2.2-0.4 3.2-0.8 2-0.6 3.2-1.2 2-0.8 3-1.4c1-0.6 2-1 2.8-1.8 1-0.6 1.8-1.2 2.6-2s1.6-1.4 2.4-2.2c0.8-0.8 1.6-1.6 2.2-2.4 0.8-0.8 1.4-1.8 2-2.6 0.6-1 1.2-1.8 1.8-2.8 0.6-1 1-2 1.4-3 0.4-1 0.8-2 1.2-3.2 0.4-1 0.6-2.2 0.8-3.2 0.2-1 0.4-2.2 0.4-3.2 0.2-1.2 0.2-2.2 0.2-3.4 0-1.2 0-2.2-0.2-3.4-0.2-1.2-0.2-2.2-0.4-3.2s-0.4-2.2-0.8-3.2-0.6-2-1.2-3.2-0.8-2-1.4-3c-0.6-1-1-2-1.8-2.8-0.6-1-1.2-1.8-2-2.6s-1.4-1.6-2.2-2.4-1.6-1.6-2.4-2.2c-0.8-0.8-1.8-1.4-2.6-2-1-0.6-1.8-1.2-2.8-1.8-1-0.6-2-1-3-1.4-1-0.4-2-0.8-3.2-1.2-1-0.4-2.2-0.6-3.2-0.8-1-0.2-2.2-0.4-3.2-0.4-1-0.2-2.2-0.2-3.4-0.2H342.4l-11.8-67.6h509.8c3 0 5.8-0.2 8.6-0.8 2.8-0.4 5.6-1.2 8.4-2.2 2.8-1 5.4-2.2 7.8-3.6 2.6-1.4 5-3 7.2-5 2.2-1.8 4.4-3.8 6.2-6s3.6-4.6 5.2-7c1.4-2.4 2.8-5 3.8-7.8s1.8-5.4 2.4-8.4l60.8-303.8c0.8-3.6 1-7.4 1-11.2 0-3.8-0.6-7.4-1.6-11-1-3.6-2.2-7.2-3.8-10.4-1.8-3.2-3.8-6.4-6.2-9.2z"  /></svg>