<svg class="svg-icon" style="width: 1em; height: 1em;vertical-align: middle;fill: currentColor;overflow: hidden;" viewBox="0 0 1024 1024" version="1.1" xmlns="http://www.w3.org/2000/svg"><path d="M240.9 371.1v482.5c0 17.2 13.9 31.1 31.1 31.1h487.9c17.2 0 31.1-13.9 31.1-31.1V371.1H240.9z m167.2 428.7c0 5.9-4.8 10.7-10.7 10.7h-2.8c-5.9 0-10.7-4.8-10.7-10.7V452.1c0-5.9 4.8-10.7 10.7-10.7h2.8c5.9 0 10.7 4.8 10.7 10.7v347.7z m119.9 0c0 5.9-4.8 10.7-10.7 10.7h-2.8c-5.9 0-10.7-4.8-10.7-10.7V452.1c0-5.9 4.8-10.7 10.7-10.7h2.8c5.9 0 10.7 4.8 10.7 10.7v347.7z m119.8 0c0 5.9-4.8 10.7-10.7 10.7h-2.8c-5.9 0-10.7-4.8-10.7-10.7V452.1c0-5.9 4.8-10.7 10.7-10.7h2.8c5.9 0 10.7 4.8 10.7 10.7v347.7z" fill="#263554" /><path d="M813.9 218.6h-596c-16.8 0-30.5 13.7-30.5 30.5v91.8c0 16.8 13.7 30.5 30.5 30.5h596c16.8 0 30.5-13.7 30.5-30.5V249c0-16.8-13.7-30.4-30.5-30.4z" fill="#263554" /><path d="M636.6 158.8H395.1c-4.4 0-7.9 3.5-7.9 7.9V213c0 4.4 3.5 7.9 7.9 7.9h241.5c4.4 0 7.9-3.5 7.9-7.9v-46.3c0-4.3-3.5-7.9-7.9-7.9z" fill="#263554" /></svg>